<svg width="59" height="59" viewBox="0 0 59 59" fill="none" xmlns="http://www.w3.org/2000/svg">
<path opacity="0.8" d="M28.3775 48.5C31.2352 48.5013 34.0414 47.714 36.5135 46.2191C38.9854 44.7244 41.035 42.5757 42.4583 39.9915L42.4587 39.9909C42.6745 39.5979 42.7749 39.1493 42.7496 38.6999C42.7242 38.2505 42.574 37.8166 42.3146 37.4517C42.0551 37.0866 41.6969 36.8055 41.2816 36.6468C41.0625 36.5631 40.8334 36.5157 40.6024 36.5052V36.2962L39.9275 36.5792L39.9112 36.5832L39.9057 36.5845L39.6767 36.6382L39.6766 36.6383C38.3956 36.9392 37.1088 37.2115 35.8168 37.455C33.3997 37.9087 30.5332 38.3336 28.3775 38.3336C26.2217 38.3336 23.3585 37.9087 20.9377 37.4549L20.9374 37.4548C19.7489 37.2328 18.7055 37.0069 17.9564 36.839C17.9561 36.8389 17.9558 36.8389 17.9555 36.8388L17.0783 36.6382L17.0756 36.6376L16.8605 36.5872L16.8173 36.5739L16.7454 36.5517H16.7094C16.297 36.4629 15.8687 36.4958 15.4734 36.6468C15.0581 36.8055 14.6999 37.0866 14.4404 37.4517C14.181 37.8166 14.0308 38.2505 14.0054 38.6999C13.9801 39.1493 14.0805 39.5979 14.2964 39.9909L14.2967 39.9915C15.72 42.5757 17.7696 44.7244 20.2416 46.2191C22.7136 47.714 25.5198 48.5013 28.3775 48.5ZM28.3775 48.5C28.3776 48.5 28.3777 48.5 28.3777 48.5L28.3775 48L28.3773 48.5C28.3773 48.5 28.3774 48.5 28.3775 48.5ZM20.3038 30.1359L20.6375 30.26L20.8639 29.9852C26.2726 23.4216 26.3122 18.6692 24.2216 16.2039C22.2976 13.935 18.6418 13.8676 16.9641 16.398C14.2543 15.0548 11.1284 16.9711 10.5847 19.8981C9.99204 23.0888 12.3738 27.1869 20.3038 30.1359ZM36.136 29.9852L36.3624 30.26L36.6962 30.1359C44.6262 27.1869 47.008 23.0888 46.4153 19.8981C45.8716 16.9711 42.7458 15.0549 40.0361 16.3979C38.3599 13.8674 34.7049 13.9352 32.781 16.2039C30.6905 18.6691 30.729 23.4214 36.136 29.9852ZM29.5 53.9375C23.0188 53.9375 16.803 51.3628 12.2201 46.7799C7.63716 42.197 5.0625 35.9812 5.0625 29.5C5.0625 23.0188 7.63716 16.803 12.2201 12.2201C16.803 7.63716 23.0188 5.0625 29.5 5.0625C35.9812 5.0625 42.197 7.63716 46.7799 12.2201C51.3628 16.803 53.9375 23.0188 53.9375 29.5C53.9375 35.9812 51.3628 42.197 46.7799 46.7799C42.197 51.3628 35.9812 53.9375 29.5 53.9375ZM29.5 58.5C37.1913 58.5 44.5675 55.4447 50.0061 50.0061C55.4447 44.5675 58.5 37.1913 58.5 29.5C58.5 21.8087 55.4447 14.4325 50.0061 8.9939C44.5675 3.55535 37.1913 0.5 29.5 0.5C21.8087 0.5 14.4325 3.55535 8.9939 8.9939C3.55535 14.4325 0.5 21.8087 0.5 29.5C0.5 37.1913 3.55535 44.5675 8.9939 50.0061C14.4325 55.4447 21.8087 58.5 29.5 58.5Z" fill="#1CCF39" stroke="#3DD854"/>
</svg>
