<svg width="153" height="27" viewBox="0 0 153 27" fill="none" xmlns="http://www.w3.org/2000/svg">
<path d="M27.4205 12.787L14.6986 0.284738C14.607 0.194477 14.4982 0.122867 14.3784 0.0740083C14.2586 0.0251493 14.1302 0 14.0006 0C13.8709 0 13.7425 0.0251493 13.6227 0.0740083C13.503 0.122867 13.3942 0.194477 13.3026 0.284738L0.580655 12.787C0.210024 13.1515 0 13.6466 0 14.163C0 15.2352 0.886425 16.1069 1.9767 16.1069H3.31715V25.028C3.31715 25.5656 3.75881 26 4.30549 26H12.0239V19.1961H15.4831V26H23.6957C24.2423 26 24.684 25.5656 24.684 25.028V16.1069H26.0245C26.5495 16.1069 27.053 15.9034 27.4236 15.5359C28.1926 14.7765 28.1926 13.5464 27.4205 12.787Z" fill="#5274F3"/>
<path d="M38.04 22C37.7467 22 37.5 21.9 37.3 21.7C37.1 21.5 37 21.2533 37 20.96V7.42C37 7.11333 37.1 6.86667 37.3 6.68C37.5 6.48 37.7467 6.38 38.04 6.38H41.66C42.8067 6.38 43.8467 6.57333 44.78 6.96C45.7267 7.33333 46.5467 7.87333 47.24 8.58C47.9333 9.27333 48.4667 10.0933 48.84 11.04C49.2133 11.9867 49.4 13.0333 49.4 14.18C49.4 15.3267 49.2133 16.38 48.84 17.34C48.4667 18.2867 47.9333 19.1133 47.24 19.82C46.5467 20.5133 45.7267 21.0533 44.78 21.44C43.8467 21.8133 42.8067 22 41.66 22H38.04ZM39.08 20.16H41.66C42.78 20.16 43.7667 19.9067 44.62 19.4C45.4867 18.88 46.1667 18.1733 46.66 17.28C47.1533 16.3733 47.4 15.34 47.4 14.18C47.4 13.0067 47.1533 11.9733 46.66 11.08C46.1667 10.1867 45.4867 9.48667 44.62 8.98C43.7667 8.47333 42.78 8.22 41.66 8.22H39.08V20.16ZM57.0241 22.08C56.0507 22.08 55.1774 21.84 54.4041 21.36C53.6307 20.8667 53.0174 20.2067 52.5641 19.38C52.1241 18.54 51.9041 17.5933 51.9041 16.54C51.9041 15.4867 52.1441 14.54 52.6241 13.7C53.1174 12.86 53.7774 12.2 54.6041 11.72C55.4441 11.2267 56.3841 10.98 57.4241 10.98C58.4641 10.98 59.3974 11.2267 60.2241 11.72C61.0507 12.2 61.7041 12.86 62.1841 13.7C62.6774 14.54 62.9241 15.4867 62.9241 16.54V21C62.9241 21.2933 62.8241 21.54 62.6241 21.74C62.4374 21.9267 62.1974 22.02 61.9041 22.02C61.6107 22.02 61.3641 21.9267 61.1641 21.74C60.9774 21.54 60.8841 21.2933 60.8841 21V20.26C60.4174 20.82 59.8507 21.2667 59.1841 21.6C58.5307 21.92 57.8107 22.08 57.0241 22.08ZM57.4241 20.28C58.1041 20.28 58.7107 20.12 59.2441 19.8C59.7774 19.4667 60.1974 19.02 60.5041 18.46C60.8107 17.8867 60.9641 17.2467 60.9641 16.54C60.9641 15.82 60.8107 15.18 60.5041 14.62C60.1974 14.0467 59.7774 13.6 59.2441 13.28C58.7107 12.9467 58.1041 12.78 57.4241 12.78C56.7574 12.78 56.1507 12.9467 55.6041 13.28C55.0707 13.6 54.6441 14.0467 54.3241 14.62C54.0174 15.18 53.8641 15.82 53.8641 16.54C53.8641 17.2467 54.0174 17.8867 54.3241 18.46C54.6441 19.02 55.0707 19.4667 55.6041 19.8C56.1507 20.12 56.7574 20.28 57.4241 20.28ZM69.9402 22.08C69.0068 22.08 68.1402 21.94 67.3402 21.66C66.5535 21.3667 65.9402 21 65.5002 20.56C65.3002 20.3467 65.2135 20.1067 65.2402 19.84C65.2802 19.56 65.4135 19.3333 65.6402 19.16C65.9068 18.9467 66.1668 18.86 66.4202 18.9C66.6868 18.9267 66.9135 19.04 67.1002 19.24C67.3268 19.4933 67.6868 19.7333 68.1802 19.96C68.6868 20.1733 69.2468 20.28 69.8602 20.28C70.6335 20.28 71.2202 20.1533 71.6202 19.9C72.0335 19.6467 72.2468 19.32 72.2602 18.92C72.2735 18.52 72.0802 18.1733 71.6802 17.88C71.2935 17.5867 70.5802 17.3467 69.5402 17.16C68.1935 16.8933 67.2135 16.4933 66.6002 15.96C66.0002 15.4267 65.7002 14.7733 65.7002 14C65.7002 13.32 65.9002 12.76 66.3002 12.32C66.7002 11.8667 67.2135 11.5333 67.8402 11.32C68.4668 11.0933 69.1202 10.98 69.8002 10.98C70.6802 10.98 71.4602 11.12 72.1402 11.4C72.8202 11.68 73.3602 12.0667 73.7602 12.56C73.9468 12.7733 74.0335 13 74.0202 13.24C74.0068 13.4667 73.8935 13.66 73.6802 13.82C73.4668 13.9667 73.2135 14.0133 72.9202 13.96C72.6268 13.9067 72.3802 13.7867 72.1802 13.6C71.8468 13.28 71.4868 13.06 71.1002 12.94C70.7135 12.82 70.2668 12.76 69.7602 12.76C69.1735 12.76 68.6735 12.86 68.2602 13.06C67.8602 13.26 67.6602 13.5533 67.6602 13.94C67.6602 14.18 67.7202 14.4 67.8402 14.6C67.9735 14.7867 68.2268 14.96 68.6002 15.12C68.9735 15.2667 69.5202 15.4133 70.2402 15.56C71.7468 15.8533 72.7868 16.2733 73.3602 16.82C73.9468 17.3533 74.2402 18.0133 74.2402 18.8C74.2402 19.4133 74.0735 19.9667 73.7402 20.46C73.4202 20.9533 72.9402 21.3467 72.3002 21.64C71.6735 21.9333 70.8868 22.08 69.9402 22.08ZM77.8395 22.02C77.5462 22.02 77.2995 21.9267 77.0995 21.74C76.9129 21.54 76.8195 21.2933 76.8195 21V12.08C76.8195 11.7733 76.9129 11.5267 77.0995 11.34C77.2995 11.1533 77.5462 11.06 77.8395 11.06C78.1462 11.06 78.3929 11.1533 78.5795 11.34C78.7662 11.5267 78.8595 11.7733 78.8595 12.08V12.3C79.2729 11.8867 79.7729 11.56 80.3595 11.32C80.9462 11.08 81.5795 10.96 82.2595 10.96C83.1795 10.96 83.9995 11.16 84.7195 11.56C85.4529 11.9467 86.0262 12.52 86.4395 13.28C86.8662 14.04 87.0795 14.9733 87.0795 16.08V21C87.0795 21.2933 86.9795 21.54 86.7795 21.74C86.5929 21.9267 86.3529 22.02 86.0595 22.02C85.7662 22.02 85.5195 21.9267 85.3195 21.74C85.1329 21.54 85.0395 21.2933 85.0395 21V16.08C85.0395 14.9467 84.7329 14.12 84.1195 13.6C83.5195 13.0667 82.7662 12.8 81.8595 12.8C81.2995 12.8 80.7929 12.9133 80.3395 13.14C79.8862 13.3667 79.5262 13.6733 79.2595 14.06C78.9929 14.4333 78.8595 14.8667 78.8595 15.36V21C78.8595 21.2933 78.7662 21.54 78.5795 21.74C78.3929 21.9267 78.1462 22.02 77.8395 22.02ZM77.8395 18.02C77.5462 18.02 77.2995 17.9267 77.0995 17.74C76.9129 17.54 76.8195 17.2933 76.8195 17V7.4C76.8195 7.09333 76.9129 6.84667 77.0995 6.66C77.2995 6.47333 77.5462 6.38 77.8395 6.38C78.1462 6.38 78.3929 6.47333 78.5795 6.66C78.7662 6.84667 78.8595 7.09333 78.8595 7.4V17C78.8595 17.2933 78.7662 17.54 78.5795 17.74C78.3929 17.9267 78.1462 18.02 77.8395 18.02ZM95.9719 22.08C94.9319 22.08 93.9985 21.84 93.1719 21.36C92.3452 20.8667 91.6919 20.2 91.2119 19.36C90.7319 18.52 90.4852 17.5733 90.4719 16.52V7.4C90.4719 7.09333 90.5652 6.84667 90.7519 6.66C90.9519 6.47333 91.1985 6.38 91.4919 6.38C91.7985 6.38 92.0452 6.47333 92.2319 6.66C92.4185 6.84667 92.5119 7.09333 92.5119 7.4V12.8C92.9785 12.24 93.5385 11.8 94.1919 11.48C94.8585 11.1467 95.5852 10.98 96.3719 10.98C97.3452 10.98 98.2185 11.2267 98.9919 11.72C99.7652 12.2 100.372 12.86 100.812 13.7C101.265 14.5267 101.492 15.4667 101.492 16.52C101.492 17.5733 101.245 18.52 100.752 19.36C100.272 20.2 99.6185 20.8667 98.7919 21.36C97.9652 21.84 97.0252 22.08 95.9719 22.08ZM95.9719 20.28C96.6519 20.28 97.2585 20.12 97.7919 19.8C98.3252 19.4667 98.7452 19.0133 99.0519 18.44C99.3719 17.8667 99.5319 17.2267 99.5319 16.52C99.5319 15.8 99.3719 15.16 99.0519 14.6C98.7452 14.04 98.3252 13.6 97.7919 13.28C97.2585 12.9467 96.6519 12.78 95.9719 12.78C95.3052 12.78 94.6985 12.9467 94.1519 13.28C93.6185 13.6 93.1985 14.04 92.8919 14.6C92.5852 15.16 92.4319 15.8 92.4319 16.52C92.4319 17.2267 92.5852 17.8667 92.8919 18.44C93.1985 19.0133 93.6185 19.4667 94.1519 19.8C94.6985 20.12 95.3052 20.28 95.9719 20.28ZM109.494 22.08C108.414 22.08 107.461 21.8467 106.634 21.38C105.808 20.9 105.154 20.2467 104.674 19.42C104.208 18.58 103.974 17.62 103.974 16.54C103.974 15.4467 104.208 14.4867 104.674 13.66C105.154 12.82 105.808 12.1667 106.634 11.7C107.461 11.22 108.414 10.98 109.494 10.98C110.561 10.98 111.508 11.22 112.334 11.7C113.161 12.1667 113.808 12.82 114.274 13.66C114.754 14.4867 114.994 15.4467 114.994 16.54C114.994 17.62 114.761 18.58 114.294 19.42C113.828 20.2467 113.181 20.9 112.354 21.38C111.528 21.8467 110.574 22.08 109.494 22.08ZM109.494 20.28C110.188 20.28 110.801 20.12 111.334 19.8C111.868 19.48 112.281 19.04 112.574 18.48C112.881 17.92 113.034 17.2733 113.034 16.54C113.034 15.8067 112.881 15.16 112.574 14.6C112.281 14.0267 111.868 13.58 111.334 13.26C110.801 12.94 110.188 12.78 109.494 12.78C108.801 12.78 108.188 12.94 107.654 13.26C107.121 13.58 106.701 14.0267 106.394 14.6C106.088 15.16 105.934 15.8067 105.934 16.54C105.934 17.2733 106.088 17.92 106.394 18.48C106.701 19.04 107.121 19.48 107.654 19.8C108.188 20.12 108.801 20.28 109.494 20.28ZM122.59 22.08C121.617 22.08 120.744 21.84 119.97 21.36C119.197 20.8667 118.584 20.2067 118.13 19.38C117.69 18.54 117.47 17.5933 117.47 16.54C117.47 15.4867 117.71 14.54 118.19 13.7C118.684 12.86 119.344 12.2 120.17 11.72C121.01 11.2267 121.95 10.98 122.99 10.98C124.03 10.98 124.964 11.2267 125.79 11.72C126.617 12.2 127.27 12.86 127.75 13.7C128.244 14.54 128.49 15.4867 128.49 16.54V21C128.49 21.2933 128.39 21.54 128.19 21.74C128.004 21.9267 127.764 22.02 127.47 22.02C127.177 22.02 126.93 21.9267 126.73 21.74C126.544 21.54 126.45 21.2933 126.45 21V20.26C125.984 20.82 125.417 21.2667 124.75 21.6C124.097 21.92 123.377 22.08 122.59 22.08ZM122.99 20.28C123.67 20.28 124.277 20.12 124.81 19.8C125.344 19.4667 125.764 19.02 126.07 18.46C126.377 17.8867 126.53 17.2467 126.53 16.54C126.53 15.82 126.377 15.18 126.07 14.62C125.764 14.0467 125.344 13.6 124.81 13.28C124.277 12.9467 123.67 12.78 122.99 12.78C122.324 12.78 121.717 12.9467 121.17 13.28C120.637 13.6 120.21 14.0467 119.89 14.62C119.584 15.18 119.43 15.82 119.43 16.54C119.43 17.2467 119.584 17.8867 119.89 18.46C120.21 19.02 120.637 19.4667 121.17 19.8C121.717 20.12 122.324 20.28 122.99 20.28ZM132.527 22C131.86 22 131.527 21.6667 131.527 21V12.06C131.527 11.3933 131.86 11.06 132.527 11.06C133.193 11.06 133.527 11.3933 133.527 12.06V12.44C133.927 11.9733 134.413 11.6067 134.987 11.34C135.573 11.0733 136.207 10.94 136.887 10.94C137.687 10.94 138.28 11.0733 138.667 11.34C139.067 11.5933 139.22 11.9 139.127 12.26C139.06 12.54 138.927 12.7267 138.727 12.82C138.527 12.9 138.293 12.9133 138.027 12.86C137.173 12.6867 136.407 12.6733 135.727 12.82C135.047 12.9667 134.507 13.24 134.107 13.64C133.72 14.04 133.527 14.5467 133.527 15.16V21C133.527 21.6667 133.193 22 132.527 22ZM145.412 22.08C144.372 22.08 143.432 21.84 142.592 21.36C141.766 20.8667 141.106 20.2 140.612 19.36C140.132 18.52 139.892 17.5733 139.892 16.52C139.892 15.4667 140.112 14.5267 140.552 13.7C141.006 12.86 141.619 12.2 142.392 11.72C143.166 11.2267 144.039 10.98 145.012 10.98C145.799 10.98 146.526 11.1467 147.192 11.48C147.859 11.8 148.419 12.24 148.872 12.8V7.4C148.872 7.09333 148.966 6.84667 149.152 6.66C149.352 6.47333 149.599 6.38 149.892 6.38C150.199 6.38 150.446 6.47333 150.632 6.66C150.819 6.84667 150.912 7.09333 150.912 7.4V16.52C150.912 17.5733 150.666 18.52 150.172 19.36C149.692 20.2 149.039 20.8667 148.212 21.36C147.386 21.84 146.452 22.08 145.412 22.08ZM145.412 20.28C146.092 20.28 146.699 20.12 147.232 19.8C147.766 19.4667 148.186 19.0133 148.492 18.44C148.799 17.8667 148.952 17.2267 148.952 16.52C148.952 15.8 148.799 15.16 148.492 14.6C148.186 14.04 147.766 13.6 147.232 13.28C146.699 12.9467 146.092 12.78 145.412 12.78C144.746 12.78 144.139 12.9467 143.592 13.28C143.059 13.6 142.632 14.04 142.312 14.6C142.006 15.16 141.852 15.8 141.852 16.52C141.852 17.2267 142.006 17.8667 142.312 18.44C142.632 19.0133 143.059 19.4667 143.592 19.8C144.139 20.12 144.746 20.28 145.412 20.28Z" fill="#5274F3"/>
</svg>
