<svg width="68" height="68" viewBox="0 0 68 68" fill="none" xmlns="http://www.w3.org/2000/svg">
<path d="M66.4142 32.0794C67.1994 32.8647 67.1994 34.1384 66.4142 34.9298L34.9298 66.4142C34.1446 67.1994 32.8647 67.1994 32.0794 66.4142L0.58894 34.9298C-0.196313 34.1446 -0.196313 32.8647 0.58894 32.0794L32.0794 0.58894C32.8647 -0.196313 34.1384 -0.196313 34.9298 0.58894L66.4142 32.0794Z" fill="#BE75FF"/>
<path d="M53.3183 18.9774L17.7284 44.7052L15.6879 41.8795L50.8203 16.4794L53.3183 18.9774ZM47.4691 13.1343L40.9768 6.64209L11.1125 28.2335L16.4237 35.579L47.4691 13.1343Z" fill="#FEB9EB"/>
<path d="M17.7778 52.1126L32.0793 66.4141C32.8646 67.1993 34.1383 67.1993 34.9297 66.4141L55.1423 46.2015L59.9032 33.5015H8.80615L17.7778 52.1126Z" fill="#A061FF"/>
<path d="M32.4441 0.310547C32.3143 0.390927 32.1906 0.483673 32.0855 0.594969L0.588828 32.0793C0.199293 32.4688 0.00143433 32.9882 0.00143433 33.5014H21.7103L32.4441 0.310547Z" fill="#9F48FF"/>
<path d="M45.2926 33.5014H67.0076C67.0076 32.9882 66.8098 32.4688 66.4202 32.0793L34.9297 0.588786C34.8184 0.47749 34.6886 0.384744 34.5649 0.310547L45.2926 33.5014Z" fill="#D783EB"/>
<path d="M32.0793 66.4141C32.1906 66.5254 32.3143 66.6181 32.4441 66.6985L21.7103 33.5015H0.00143433C0.00143433 34.0147 0.199293 34.534 0.588828 34.9236L32.0793 66.4141Z" fill="#8B38D6"/>
<path d="M45.2926 33.5015L34.5649 66.6985C34.6948 66.6181 34.8184 66.5254 34.9297 66.4141L66.4141 34.9298C66.8036 34.534 67.0014 34.0208 67.0014 33.5076H45.2926V33.5015Z" fill="#8536CD"/>
<path d="M21.7103 16.1393C18.5878 17.1533 17.7654 17.9757 16.7514 21.0981C15.7374 17.9757 14.915 17.1533 11.7926 16.1393C14.915 15.1253 15.7374 14.3091 16.7514 11.1866C17.7654 14.3091 18.5878 15.1253 21.7103 16.1393Z" fill="white"/>
<path d="M27.4667 23.4663C25.7726 24.0166 25.3274 24.4617 24.7771 26.1559C24.2268 24.4617 23.7816 24.0166 22.0874 23.4663C23.7816 22.916 24.2268 22.4708 24.7771 20.7766C25.3274 22.4708 25.7726 22.916 27.4667 23.4663Z" fill="white"/>
</svg>
