<svg width="35" height="35" viewBox="0 0 35 35" fill="none" xmlns="http://www.w3.org/2000/svg">
<path d="M10.1883 25.1125L13.1967 24.2446L31.3102 5.91421C31.453 5.7678 31.5326 5.57106 31.5316 5.36649C31.5307 5.16192 31.4493 4.96594 31.305 4.82087L30.2202 3.72412C30.1501 3.6521 30.0664 3.59475 29.9739 3.55544C29.8814 3.51613 29.782 3.49563 29.6815 3.49516C29.581 3.49468 29.4814 3.51423 29.3885 3.55266C29.2956 3.59109 29.2113 3.64764 29.1406 3.719L11.0749 22.0016L10.1866 25.1107L10.1883 25.1125ZM32.3676 1.55112L33.4524 2.64958C34.9489 4.16487 34.9626 6.6095 33.4797 8.10942L14.8145 27.0002L8.38432 28.852C7.99174 28.9619 7.5716 28.9115 7.2161 28.712C6.8606 28.5125 6.59877 28.1801 6.48807 27.7877C6.4057 27.5056 6.40452 27.206 6.48466 26.9233L8.35528 20.3633L26.971 1.52208C27.325 1.16565 27.7464 0.883271 28.2106 0.691409C28.6749 0.499548 29.1727 0.402045 29.675 0.40459C30.1774 0.407134 30.6742 0.509674 31.1364 0.706228C31.5987 0.902783 32.0173 1.18942 32.3676 1.54942V1.55112ZM12.6893 3.52083C13.5367 3.52083 14.2234 4.21612 14.2234 5.07371C14.2248 5.27643 14.1861 5.47743 14.1097 5.66522C14.0334 5.85301 13.9207 6.0239 13.7782 6.16812C13.6358 6.31234 13.4663 6.42707 13.2794 6.50573C13.0926 6.5844 12.892 6.62546 12.6893 6.62658H6.55299C4.85832 6.62658 3.48482 8.01717 3.48482 9.73062V28.3617C3.48482 30.0769 4.85832 31.4675 6.55299 31.4675H24.962C26.6567 31.4675 28.0319 30.0769 28.0319 28.3617V22.1519C28.0319 21.2943 28.7186 20.599 29.5659 20.599C30.4133 20.599 31.1 21.2943 31.1 22.1536V28.3617C31.1 31.792 28.3513 34.5732 24.962 34.5732H6.55299C3.16366 34.5732 0.416656 31.792 0.416656 28.3617V9.73062C0.416656 6.302 3.16366 3.52083 6.55299 3.52083H12.6893Z" fill="#CACACA"/>
</svg>
