<svg width="64" height="74" viewBox="0 0 64 74" fill="none" xmlns="http://www.w3.org/2000/svg">
<path d="M55.6 2H22.9739L8 44.6147H21L11 74H18.713L64 26.8738H42.7565L55.6 2Z" fill="#FFB320"/>
<path d="M47.6 2H14.9739L0 44.6147H20.6957L10.713 74L56 26.8738H34.7565L47.6 2Z" fill="#FDD42C"/>
<mask id="mask0" style="mask-type:alpha" maskUnits="userSpaceOnUse" x="0" y="2" width="56" height="72">
<path d="M47.6 2H14.9739L0 44.6147H20.6957L10.713 74L56 26.8738H34.7565L47.6 2Z" fill="#FDD42C"/>
</mask>
<g mask="url(#mask0)">
<path opacity="0.8" fill-rule="evenodd" clip-rule="evenodd" d="M50.6683 -3.33625L-8.2313 27.6406C-10.4241 28.7938 -11.4929 31.3388 -10.781 33.7119C-9.85548 36.7968 -6.36843 38.2976 -3.49179 36.8491L55.9466 6.91916C58.9413 5.41117 60.0233 1.67606 58.2982 -1.19911C56.7242 -3.82236 53.3759 -4.76024 50.6683 -3.33625ZM58.7673 11.5339L-5.82892 45.5067C-6.55318 45.8876 -7.0067 46.6385 -7.0067 47.4569C-7.0067 49.1196 -5.23548 50.1832 -3.76782 49.4018L60.6564 15.104C61.6619 14.5688 62.026 13.3083 61.4609 12.3193C60.9211 11.3748 59.7302 11.0275 58.7673 11.5339Z" fill="#FFEB99"/>
</g>
<path d="M18.9177 6.95266C15.7952 7.96669 14.9729 8.78904 13.9588 11.9115C12.9448 8.78904 12.1225 7.96669 9 6.95266C12.1225 5.93863 12.9448 5.12246 13.9588 2C14.9729 5.12246 15.7952 5.93863 18.9177 6.95266Z" fill="white"/>
<path d="M25.3793 2.68965C23.6851 3.23994 23.2399 3.68512 22.6896 5.37929C22.1393 3.68512 21.6942 3.23994 20 2.68965C21.6942 2.13935 22.1393 1.69417 22.6896 0C23.2399 1.69417 23.6851 2.13935 25.3793 2.68965Z" fill="white"/>
</svg>
