<svg width="72" height="73" viewBox="0 0 72 73" fill="none" xmlns="http://www.w3.org/2000/svg">
<path d="M21.0342 0H67.6526C69.8714 0 71.6868 1.82946 71.6868 4.06547V65.6912C71.6868 67.9272 69.8714 69.7566 67.6526 69.7566H21.0342C18.8154 69.7566 17 67.9272 17 65.6912V4.06547C17 1.82946 18.8154 0 21.0342 0Z" fill="#4B4B4B"/>
<path d="M13.2108 0H59.8292C62.048 0 63.8634 1.82946 63.8634 4.06547V65.6912C63.8634 67.9272 62.048 69.7566 59.8292 69.7566H13.2108C10.992 69.7566 9.17662 67.9272 9.17662 65.6912V4.06547C9.17662 1.82946 10.992 0 13.2108 0Z" fill="#AEB5C6"/>
<path d="M54.3058 71H58.8476C58.9854 71 59.0997 70.8848 59.0997 70.7459V70.0107C59.0997 69.8718 58.9854 69.7567 58.8476 69.7567H54.3058C54.1679 69.7567 54.0536 69.8718 54.0536 70.0107V70.7459C54.0536 70.8882 54.1679 71 54.3058 71Z" fill="#263238"/>
<path d="M14.1925 71H18.7343C18.8721 71 18.9865 70.8848 18.9865 70.7459V70.0107C18.9865 69.8718 18.8721 69.7567 18.7343 69.7567H14.1925C14.0547 69.7567 13.9404 69.8718 13.9404 70.0107V70.7459C13.9404 70.8882 14.0547 71 14.1925 71Z" fill="#263238"/>
<path opacity="0.2" d="M13.2108 0H59.8292C62.048 0 63.8634 1.82946 63.8634 4.06547V65.6912C63.8634 67.9272 62.048 69.7566 59.8292 69.7566H13.2108C10.992 69.7566 9.17662 67.9272 9.17662 65.6912V4.06547C9.17662 1.82946 10.992 0 13.2108 0Z" fill="black"/>
<path opacity="0.4" d="M18.7007 61.7104H54.336C55.1866 61.7104 55.8757 61.0125 55.8757 60.1587V9.59789C55.8757 8.74075 55.1832 8.04623 54.336 8.04623H18.7007C17.8501 8.04623 17.161 8.74414 17.161 9.59789V60.1587C17.161 61.0159 17.8535 61.7104 18.7007 61.7104ZM54.336 8.21563C55.0924 8.21563 55.7076 8.83561 55.7076 9.59789V60.1587C55.7076 60.921 55.0924 61.541 54.336 61.541H18.7007C17.9443 61.541 17.3291 60.921 17.3291 60.1587V9.59789C17.3291 8.83561 17.9443 8.21563 18.7007 8.21563H54.336Z" fill="#E6E6E6"/>
<path d="M54.336 60.9481C54.7697 60.9481 55.1193 60.5924 55.1193 60.1587V9.59788C55.1193 9.16084 54.7663 8.8085 54.336 8.8085H18.7007C18.267 8.8085 17.9174 9.16423 17.9174 9.59788V60.1587C17.9174 60.5958 18.2704 60.9481 18.7007 60.9481H54.336Z" fill="#AEB5C6"/>
<path opacity="0.1" d="M54.336 60.9481C54.7697 60.9481 55.1193 60.5924 55.1193 60.1587V9.59788C55.1193 9.16084 54.7663 8.8085 54.336 8.8085H18.7007C18.267 8.8085 17.9174 9.16423 17.9174 9.59788V60.1587C17.9174 60.5958 18.2704 60.9481 18.7007 60.9481H54.336Z" fill="white"/>
<path d="M8 14.3782H8.33618V17.2376H8V14.3782Z" fill="#AEB5C6"/>
<path d="M8 4.06546H8.33618V11.3698H8V4.06546Z" fill="#AEB5C6"/>
<path opacity="0.1" d="M36.5184 47.4203C30.1871 47.4203 25.0545 42.248 25.0545 35.8676C25.0545 29.4872 30.1871 24.3149 36.5184 24.3149C42.8497 24.3149 47.9822 29.4872 47.9822 35.8676C47.9822 42.248 42.8497 47.4203 36.5184 47.4203Z" fill="black"/>
<path d="M36.5186 18.7111C34.972 18.7111 33.7182 17.4476 33.7182 15.8889C33.7182 14.3303 34.972 13.0668 36.5186 13.0668C38.0653 13.0668 39.319 14.3303 39.319 15.8889C39.319 17.4476 38.0653 18.7111 36.5186 18.7111Z" fill="#AEB5C6"/>
<path opacity="0.6" d="M36.5352 18.7012C34.9886 18.7012 33.7348 17.4377 33.7348 15.8791C33.7348 14.3204 34.9886 13.0569 36.5352 13.0569C38.0818 13.0569 39.3356 14.3204 39.3356 15.8791C39.3356 17.4377 38.0818 18.7012 36.5352 18.7012Z" fill="white"/>
<path d="M36.5184 18.1185C37.7387 18.1185 38.7304 17.119 38.7304 15.8892C38.7304 14.6594 37.7387 13.66 36.5184 13.66C35.298 13.66 34.3063 14.6594 34.3063 15.8892C34.3063 17.119 35.298 18.1185 36.5184 18.1185ZM36.5184 13.826C37.6446 13.826 38.5623 14.7509 38.5623 15.8858C38.5623 17.0208 37.6446 17.9457 36.5184 17.9457C35.3921 17.9457 34.4744 17.0208 34.4744 15.8858C34.4744 14.7509 35.3921 13.826 36.5184 13.826Z" fill="#AEB5C6"/>
<path d="M55.1697 23.3256H56.4136C56.6859 23.3256 56.9112 23.0986 56.9112 22.8242V15.9502C56.9112 15.6758 56.6859 15.4488 56.4136 15.4488H55.1697C54.8974 15.4488 54.6722 15.6758 54.6722 15.9502V22.8242C54.6722 23.102 54.8974 23.3256 55.1697 23.3256Z" fill="#AEB5C6"/>
<path opacity="0.6" d="M55.1697 23.3256H56.4136C56.6859 23.3256 56.9112 23.0986 56.9112 22.8242V15.9502C56.9112 15.6758 56.6859 15.4488 56.4136 15.4488H55.1697C54.8974 15.4488 54.6722 15.6758 54.6722 15.9502V22.8242C54.6722 23.102 54.8974 23.3256 55.1697 23.3256Z" fill="white"/>
<path d="M55.1697 54.3113H56.4136C56.6859 54.3113 56.9112 54.0843 56.9112 53.8099V46.9358C56.9112 46.6614 56.6859 46.4344 56.4136 46.4344H55.1697C54.8974 46.4344 54.6722 46.6614 54.6722 46.9358V53.8099C54.6722 54.0843 54.8974 54.3113 55.1697 54.3113Z" fill="#AEB5C6"/>
<path opacity="0.6" d="M55.1697 54.3113H56.4136C56.6859 54.3113 56.9112 54.0843 56.9112 53.8099V46.9358C56.9112 46.6614 56.6859 46.4344 56.4136 46.4344H55.1697C54.8974 46.4344 54.6722 46.6614 54.6722 46.9358V53.8099C54.6722 54.0843 54.8974 54.3113 55.1697 54.3113Z" fill="white"/>
<path d="M36.5184 46.431C30.1871 46.431 25.0545 41.2587 25.0545 34.8783C25.0545 28.4979 30.1871 23.3256 36.5184 23.3256C42.8497 23.3256 47.9822 28.4979 47.9822 34.8783C47.9822 41.2587 42.8497 46.431 36.5184 46.431Z" fill="#AEB5C6"/>
<path opacity="0.6" d="M36.5184 46.431C30.1871 46.431 25.0545 41.2587 25.0545 34.8783C25.0545 28.4979 30.1871 23.3256 36.5184 23.3256C42.8497 23.3256 47.9822 28.4979 47.9822 34.8783C47.9822 41.2587 42.8497 46.431 36.5184 46.431Z" fill="white"/>
<path d="M42.1939 28.6803L42.6694 29.1594L30.8455 41.075L30.37 40.5959L42.1939 28.6803Z" fill="#AEB5C6"/>
<path d="M30.8455 28.6803L42.6694 40.5959L42.1939 41.075L30.37 29.1594L30.8455 28.6803Z" fill="#AEB5C6"/>
<path opacity="0.2" d="M30.8816 28.6437L42.7056 40.5593L42.2301 41.0384L30.4062 29.1228L30.8816 28.6437Z" fill="black"/>
<path opacity="0.2" d="M42.2301 28.6437L42.7056 29.1229L30.8816 41.0385L30.4062 40.5593L42.2301 28.6437Z" fill="black"/>
<path d="M36.5553 43.6123C41.356 43.6123 45.2591 39.6789 45.2591 34.841C45.2591 30.0031 41.356 26.0698 36.5553 26.0698C31.7546 26.0698 27.8516 30.0031 27.8516 34.841C27.8516 39.6789 31.7546 43.6123 36.5553 43.6123ZM36.5553 26.7474C40.9829 26.7474 44.5867 30.3792 44.5867 34.841C44.5867 39.3029 40.9829 42.9347 36.5553 42.9347C32.1278 42.9347 28.5239 39.3029 28.5239 34.841C28.5239 30.3792 32.1278 26.7474 36.5553 26.7474Z" fill="#AEB5C6"/>
<path d="M33.9814 37.4355C32.5596 36.0027 32.5596 33.6796 33.9814 32.2467C35.4033 30.8139 37.7085 30.8139 39.1303 32.2467C40.5522 33.6796 40.5522 36.0027 39.1303 37.4355C37.7085 38.8684 35.4033 38.8684 33.9814 37.4355Z" fill="#AEB5C6"/>
<path opacity="0.2" d="M36.5553 43.6123C41.356 43.6123 45.2591 39.6789 45.2591 34.841C45.2591 30.0031 41.356 26.0698 36.5553 26.0698C31.7546 26.0698 27.8516 30.0031 27.8516 34.841C27.8516 39.6789 31.7546 43.6123 36.5553 43.6123ZM36.5553 26.7474C40.9829 26.7474 44.5867 30.3792 44.5867 34.841C44.5867 39.3029 40.9829 42.9347 36.5553 42.9347C32.1278 42.9347 28.5239 39.3029 28.5239 34.841C28.5239 30.3792 32.1278 26.7474 36.5553 26.7474Z" fill="black"/>
<path opacity="0.2" d="M33.9814 37.4355C32.5596 36.0027 32.5596 33.6796 33.9814 32.2467C35.4033 30.8139 37.7085 30.8139 39.1303 32.2467C40.5522 33.6796 40.5522 36.0027 39.1303 37.4355C37.7085 38.8684 35.4033 38.8684 33.9814 37.4355Z" fill="black"/>
<path d="M28.7432 57.8835C29.083 58.2234 29.083 58.7746 28.7432 59.1172L15.1172 72.7432C14.7773 73.083 14.2234 73.083 13.8835 72.7432L0.254885 59.1172C-0.0849617 58.7773 -0.0849617 58.2234 0.254885 57.8835L13.8835 44.2549C14.2234 43.915 14.7746 43.915 15.1172 44.2549L28.7432 57.8835Z" fill="#BE75FF"/>
<path d="M23.0755 52.2136L7.67263 63.3483L6.78957 62.1254L21.9944 51.1325L23.0755 52.2136ZM20.544 49.6848L17.7342 46.8751L4.80936 56.2195L7.10801 59.3986L20.544 49.6848Z" fill="#FEB9EB"/>
<path d="M7.69401 66.5541L13.8835 72.7436C14.2233 73.0834 14.7746 73.0834 15.1171 72.7436L23.8648 63.9958L25.9253 58.4994H3.81119L7.69401 66.5541Z" fill="#A061FF"/>
<path d="M14.0414 44.1349C13.9852 44.1696 13.9317 44.2098 13.8862 44.258L0.254857 57.8839C0.0862716 58.0525 0.000640869 58.2773 0.000640869 58.4994H9.39594L14.0414 44.1349Z" fill="#9F48FF"/>
<path d="M19.602 58.4994H29C29 58.2773 28.9144 58.0525 28.7458 57.8839L15.1171 44.2553C15.0689 44.2071 15.0127 44.167 14.9592 44.1349L19.602 58.4994Z" fill="#D783EB"/>
<path d="M13.8835 72.7436C13.9317 72.7917 13.9852 72.8319 14.0414 72.8666L9.39594 58.4994H0.000640869C0.000640869 58.7215 0.0862716 58.9463 0.254857 59.1149L13.8835 72.7436Z" fill="#8B38D6"/>
<path d="M19.602 58.4994L14.9592 72.8666C15.0154 72.8319 15.0689 72.7917 15.1171 72.7436L28.7431 59.1176C28.9117 58.9463 28.9973 58.7242 28.9973 58.5021H19.602V58.4994Z" fill="#8536CD"/>
<path d="M9.39588 50.9853C8.04452 51.4242 7.68862 51.7801 7.24976 53.1315C6.8109 51.7801 6.455 51.4242 5.10364 50.9853C6.455 50.5465 6.8109 50.1932 7.24976 48.8419C7.68862 50.1932 8.04452 50.5465 9.39588 50.9853Z" fill="white"/>
<path d="M11.8872 54.1564C11.154 54.3945 10.9613 54.5872 10.7232 55.3204C10.485 54.5872 10.2923 54.3945 9.55911 54.1564C10.2923 53.9182 10.485 53.7256 10.7232 52.9923C10.9613 53.7256 11.154 53.9182 11.8872 54.1564Z" fill="white"/>
</svg>
