<svg width="26" height="22" viewBox="0 0 26 22" fill="none" xmlns="http://www.w3.org/2000/svg">
<path d="M24.7 0H1.3C0.955218 0 0.624558 0.136344 0.380761 0.379039C0.136964 0.621733 0 0.950896 0 1.29412V19.4118C0 20.0982 0.273928 20.7565 0.761522 21.2419C1.24912 21.7273 1.91044 22 2.6 22H23.4C24.0896 22 24.7509 21.7273 25.2385 21.2419C25.7261 20.7565 26 20.0982 26 19.4118V1.29412C26 0.950896 25.863 0.621733 25.6192 0.379039C25.3754 0.136344 25.0448 0 24.7 0ZM13 11.6471C8.6983 11.6471 5.2 8.16459 5.2 3.88235H7.8C7.8 6.73718 10.1322 9.05882 13 9.05882C15.8678 9.05882 18.2 6.73718 18.2 3.88235H20.8C20.8 8.16459 17.3017 11.6471 13 11.6471Z" fill="#C7C7C7"/>
</svg>
