<svg width="184" height="84" viewBox="0 0 184 84" fill="none" xmlns="http://www.w3.org/2000/svg">
<g filter="url(#filter0_d)">
<rect x="2" y="1" width="179.71" height="80" rx="15" fill="url(#paint0_linear)"/>
<path d="M47.4318 22.1362C47.7101 21.6145 48.1797 21.2492 48.8405 21.0405C49.5014 20.8318 50.3362 20.7275 51.3449 20.7275C52.3536 20.7275 53.1536 20.8145 53.7449 20.9884C54.3362 21.1623 54.7884 21.371 55.1014 21.6145C55.4145 21.8579 55.6579 22.2058 55.8318 22.6579C56.0058 23.2492 56.0927 24.1536 56.0927 25.371V54.3275C56.0927 55.1275 56.0579 55.7362 55.9884 56.1536C55.9536 56.5362 55.7971 56.9884 55.5188 57.5101C55.0318 58.4492 53.6753 58.9188 51.4492 58.9188C49.0145 58.9188 47.5884 58.2753 47.171 56.9884C46.9623 56.3971 46.8579 55.4927 46.8579 54.2753V43.684H33.0318V54.3275C33.0318 55.1275 32.9971 55.7362 32.9275 56.1536C32.8927 56.5362 32.7362 56.9884 32.4579 57.5101C31.971 58.4492 30.6144 58.9188 28.3884 58.9188C25.9536 58.9188 24.5275 58.2753 24.1101 56.9884C23.9014 56.3971 23.7971 55.4927 23.7971 54.2753V25.3188C23.7971 24.5188 23.8144 23.9275 23.8492 23.5449C23.9188 23.1275 24.0927 22.6579 24.371 22.1362C24.8579 21.1971 26.2144 20.7275 28.4405 20.7275C30.8753 20.7275 32.3188 21.371 32.771 22.6579C32.9449 23.2492 33.0318 24.1536 33.0318 25.371V36.0145H46.8579V25.3188C46.8579 24.5188 46.8753 23.9275 46.9101 23.5449C46.9797 23.1275 47.1536 22.6579 47.4318 22.1362Z" fill="#F5F3FF"/>
<path d="M69.5128 49.7362H85.5824C86.3824 49.7362 86.9737 49.771 87.3563 49.8405C87.7737 49.8753 88.2432 50.0318 88.765 50.3101C89.7041 50.7971 90.1737 52.1536 90.1737 54.3797C90.1737 56.8145 89.5302 58.2405 88.2433 58.6579C87.652 58.8666 86.7476 58.971 85.5302 58.971H64.8693C62.4346 58.971 61.0085 58.3101 60.5911 56.9884C60.3824 56.4319 60.278 55.5449 60.278 54.3275V25.3188C60.278 23.5449 60.6085 22.3449 61.2693 21.7188C61.9302 21.0579 63.1824 20.7275 65.0259 20.7275H85.5824C86.3824 20.7275 86.9737 20.7623 87.3563 20.8318C87.7737 20.8666 88.2432 21.0232 88.765 21.3014C89.7041 21.7884 90.1737 23.1449 90.1737 25.371C90.1737 27.8058 89.5302 29.2318 88.2433 29.6492C87.652 29.8579 86.7476 29.9623 85.5302 29.9623H69.5128V35.2318H79.8433C80.6433 35.2318 81.2346 35.2666 81.6172 35.3362C82.0346 35.371 82.5041 35.5275 83.0259 35.8058C83.965 36.2927 84.4346 37.6492 84.4346 39.8753C84.4346 42.3101 83.7737 43.7362 82.4519 44.1536C81.8606 44.3623 80.9563 44.4666 79.7389 44.4666H69.5128V49.7362Z" fill="#F5F3FF"/>
<path d="M122.819 52.5014C123.34 53.7536 123.601 54.6579 123.601 55.2145C123.601 56.5362 122.523 57.6492 120.366 58.5536C119.253 59.0405 118.349 59.284 117.653 59.284C116.993 59.284 116.436 59.1275 115.984 58.8145C115.566 58.4666 115.253 58.1188 115.045 57.771C114.697 57.1101 113.34 53.9623 110.975 48.3275L109.358 48.4318H102.784V54.3275C102.784 55.1275 102.749 55.7362 102.68 56.1536C102.645 56.5362 102.488 56.9884 102.21 57.5101C101.723 58.4492 100.366 58.9188 98.1404 58.9188C95.7056 58.9188 94.2795 58.2753 93.8621 56.9884C93.6534 56.3971 93.5491 55.4927 93.5491 54.2753V25.3188C93.5491 24.5188 93.5665 23.9275 93.6013 23.5449C93.6708 23.1275 93.8447 22.6579 94.123 22.1362C94.61 21.1971 95.9665 20.7275 98.1926 20.7275H109.462C112.523 20.7275 115.497 21.8405 118.384 24.0666C119.775 25.1449 120.923 26.6058 121.827 28.4492C122.732 30.2927 123.184 32.3449 123.184 34.6058C123.184 38.5362 121.88 41.771 119.271 44.3101C120.036 46.1536 121.219 48.884 122.819 52.5014ZM102.784 39.1971H109.462C110.471 39.1971 111.48 38.8145 112.488 38.0492C113.497 37.284 114.001 36.1362 114.001 34.6058C114.001 33.0753 113.497 31.9275 112.488 31.1623C111.48 30.3623 110.436 29.9623 109.358 29.9623H102.784V39.1971Z" fill="#F5F3FF"/>
<path d="M143.902 20.2579C149.05 20.2579 153.519 22.1188 157.311 25.8405C161.102 29.5623 162.997 34.1884 162.997 39.7188C162.997 45.2145 161.189 49.9101 157.571 53.8058C153.954 57.6666 149.502 59.5971 144.215 59.5971C138.928 59.5971 134.424 57.684 130.702 53.8579C127.015 50.0318 125.171 45.4753 125.171 40.1884C125.171 37.3014 125.693 34.6058 126.737 32.1014C127.78 29.5623 129.171 27.4405 130.911 25.7362C132.65 24.0318 134.65 22.6927 136.91 21.7188C139.171 20.7449 141.502 20.2579 143.902 20.2579ZM134.406 39.9275C134.406 43.0232 135.397 45.5449 137.38 47.4927C139.397 49.4058 141.641 50.3623 144.111 50.3623C146.58 50.3623 148.806 49.4232 150.789 47.5449C152.771 45.6666 153.763 43.1449 153.763 39.9797C153.763 36.8145 152.754 34.2753 150.737 32.3623C148.754 30.4492 146.528 29.4927 144.058 29.4927C141.589 29.4927 139.363 30.4666 137.38 32.4145C135.397 34.3275 134.406 36.8318 134.406 39.9275Z" fill="#F5F3FF"/>
<path d="M165.41 15C165.277 15 165.16 14.95 165.06 14.85C164.96 14.75 164.91 14.63 164.91 14.49V8.39L164.18 8.7C164.067 8.74667 163.96 8.77 163.86 8.77C163.713 8.77 163.59 8.72333 163.49 8.63C163.397 8.53667 163.35 8.41667 163.35 8.27C163.35 8.16333 163.377 8.06667 163.43 7.98C163.483 7.89333 163.567 7.83 163.68 7.79L165.24 7.23C165.273 7.21667 165.307 7.20667 165.34 7.2C165.373 7.19333 165.403 7.19 165.43 7.19C165.583 7.19 165.703 7.24 165.79 7.34C165.883 7.43333 165.93 7.55667 165.93 7.71V14.49C165.93 14.63 165.88 14.75 165.78 14.85C165.68 14.95 165.557 15 165.41 15ZM168.116 15.16C167.929 15.16 167.766 15.0933 167.626 14.96C167.492 14.82 167.426 14.6567 167.426 14.47C167.426 14.2767 167.492 14.1133 167.626 13.98C167.766 13.84 167.929 13.77 168.116 13.77C168.309 13.77 168.472 13.84 168.606 13.98C168.739 14.1133 168.806 14.2767 168.806 14.47C168.806 14.6567 168.739 14.82 168.606 14.96C168.472 15.0933 168.309 15.16 168.116 15.16ZM171.798 15C171.038 15 170.448 14.6567 170.028 13.97C169.615 13.2767 169.408 12.3167 169.408 11.09C169.408 9.85667 169.615 8.89667 170.028 8.21C170.448 7.52333 171.038 7.18 171.798 7.18C172.305 7.18 172.735 7.34 173.088 7.66C173.448 7.97333 173.722 8.42333 173.908 9.01C174.095 9.59 174.188 10.2833 174.188 11.09C174.188 11.8967 174.095 12.5933 173.908 13.18C173.722 13.76 173.448 14.21 173.088 14.53C172.735 14.8433 172.305 15 171.798 15ZM171.798 13.96C172.105 13.96 172.358 13.8367 172.558 13.59C172.758 13.3367 172.908 12.9933 173.008 12.56C173.108 12.1267 173.158 11.6367 173.158 11.09C173.158 10.5433 173.108 10.0533 173.008 9.62C172.908 9.18667 172.758 8.84333 172.558 8.59C172.358 8.33667 172.105 8.21 171.798 8.21C171.492 8.21 171.238 8.33667 171.038 8.59C170.838 8.83667 170.688 9.17667 170.588 9.61C170.488 10.0433 170.438 10.5367 170.438 11.09C170.438 11.6433 170.488 12.1367 170.588 12.57C170.688 13.0033 170.838 13.3433 171.038 13.59C171.245 13.8367 171.498 13.96 171.798 13.96Z" fill="white"/>
</g>
<defs>
<filter id="filter0_d" x="0" y="0" width="183.71" height="84" filterUnits="userSpaceOnUse" color-interpolation-filters="sRGB">
<feFlood flood-opacity="0" result="BackgroundImageFix"/>
<feColorMatrix in="SourceAlpha" type="matrix" values="0 0 0 0 0 0 0 0 0 0 0 0 0 0 0 0 0 0 127 0" result="hardAlpha"/>
<feOffset dy="1"/>
<feGaussianBlur stdDeviation="1"/>
<feComposite in2="hardAlpha" operator="out"/>
<feColorMatrix type="matrix" values="0 0 0 0 0 0 0 0 0 0 0 0 0 0 0 0 0 0 0.15 0"/>
<feBlend mode="normal" in2="BackgroundImageFix" result="effect1_dropShadow"/>
<feBlend mode="normal" in="SourceGraphic" in2="effect1_dropShadow" result="shape"/>
</filter>
<linearGradient id="paint0_linear" x1="197.942" y1="40.4203" x2="-11.913" y2="40.4203" gradientUnits="userSpaceOnUse">
<stop stop-color="#AD17E1"/>
<stop offset="0.489583" stop-color="#6718E7"/>
<stop offset="1" stop-color="#3C61E6"/>
</linearGradient>
</defs>
</svg>
