<svg width="59" height="59" viewBox="0 0 59 59" fill="none" xmlns="http://www.w3.org/2000/svg">
<path opacity="0.5" d="M29.5 0C13.2036 0 0 13.2036 0 29.5C0 45.7964 13.2036 59 29.5 59C45.7964 59 59 45.7964 59 29.5C59 13.2036 45.7964 0 29.5 0ZM46.629 45.9629V32.3548C46.629 30.7847 45.3444 29.5 43.7742 29.5C42.204 29.5 40.9194 30.7847 40.9194 32.3548V50.3641C37.5292 52.2198 33.6395 53.2903 29.5 53.2903C25.3605 53.2903 21.4708 52.2198 18.0806 50.3641V32.3548C18.0806 30.7847 16.796 29.5 15.2258 29.5C13.6556 29.5 12.371 30.7847 12.371 32.3548V45.9629C8.25524 41.6806 5.70968 35.8877 5.70968 29.5C5.70968 16.3796 16.3796 5.70968 29.5 5.70968C42.6204 5.70968 53.2903 16.3796 53.2903 29.5C53.2903 35.8877 50.7448 41.6925 46.629 45.9629ZM24.4802 26.9425C25.0036 26.6571 25.301 26.0623 25.2058 25.4675C24.73 22.47 21.1377 20.4597 18.0925 20.4597C15.0474 20.4597 11.4431 22.47 10.9792 25.4675C10.8841 26.0623 11.1815 26.6571 11.7048 26.9425C12.2282 27.228 12.8825 27.1567 13.3345 26.7522L14.4645 25.7411C16.225 24.171 19.9601 24.171 21.7206 25.7411L22.8506 26.7522C23.148 27.0258 23.7903 27.3232 24.4802 26.9425ZM40.9194 20.4597C37.8623 20.4597 34.27 22.47 33.806 25.4675C33.7109 26.0623 34.0083 26.6571 34.5317 26.9425C35.0669 27.228 35.7093 27.1567 36.1613 26.7522L37.2913 25.7411C39.0518 24.171 42.7869 24.171 44.5474 25.7411L45.6774 26.7522C45.9748 27.0139 46.629 27.3113 47.3071 26.9425C47.8304 26.6571 48.1278 26.0623 48.0327 25.4675C47.5687 22.47 43.9764 20.4597 40.9194 20.4597ZM29.5 31.4032C25.8244 31.4032 22.8387 34.8171 22.8387 39.0161C22.8387 43.2151 25.8244 46.629 29.5 46.629C33.1756 46.629 36.1613 43.2151 36.1613 39.0161C36.1613 34.8171 33.1756 31.4032 29.5 31.4032Z" fill="#FF0000"/>
</svg>
