<svg width="28" height="24" viewBox="0 0 28 24" fill="none" xmlns="http://www.w3.org/2000/svg">
<path d="M7.96911 7.875L9.19956 0H2.8L0.126 6.75C0.0435555 6.99 0 7.239 0 7.5C0 9.156 1.78889 10.5 3.99933 10.5C6.03711 10.5 7.72178 9.354 7.96911 7.875ZM14 10.5C16.2089 10.5 17.9993 9.156 17.9993 7.5C17.9993 7.4385 17.9947 7.377 17.9916 7.3185L17.1998 0H10.8002L10.0069 7.3125C10.0038 7.374 10.0007 7.4355 10.0007 7.5C10.0007 9.156 11.7911 10.5 14 10.5ZM21.7778 12.069V18H6.22222V12.078C5.54089 12.315 4.79111 12.45 3.99933 12.45C3.696 12.45 3.402 12.4155 3.11111 12.3765V21.9C3.11111 23.055 4.08956 24 5.28578 24H22.7111C23.9089 24 24.8889 23.0535 24.8889 21.9V12.378C24.5948 12.4215 24.2981 12.4461 24.0007 12.4515C23.2422 12.4508 22.4897 12.3213 21.7778 12.069ZM27.8756 6.75L25.1984 0H18.8004L20.0293 7.863C20.2689 9.348 21.9536 10.5 24.0007 10.5C26.2096 10.5 28 9.156 28 7.5C28 7.239 27.9564 6.99 27.8756 6.75Z" fill="#C7C7C7"/>
</svg>
