<svg width="88" height="88" viewBox="0 0 88 88" fill="none" xmlns="http://www.w3.org/2000/svg">
<g filter="url(#filter0_d)">
<rect x="2" y="1" width="84" height="84" rx="15" fill="url(#paint0_linear)"/>
</g>
<g filter="url(#filter1_d)">
<path d="M24.95 42.5H22.3V63.7C22.3 65.1056 22.8584 66.4537 23.8523 67.4477C24.8463 68.4416 26.1944 69 27.6 69H40.85V42.5H24.95ZM59.4 42.5H46.15V69H59.4C60.8056 69 62.1537 68.4416 63.1477 67.4477C64.1416 66.4537 64.7 65.1056 64.7 63.7V42.5H59.4ZM61.4962 29.25C61.8848 27.9615 62.0716 26.6206 62.05 25.275C62.05 20.1605 57.8895 16 52.775 16C48.4767 16 45.6068 19.9273 43.7544 24.1753C41.9286 20.1605 38.9129 16 34.225 16C29.1105 16 24.95 20.1605 24.95 25.275C24.95 26.8544 25.1594 28.1609 25.5039 29.25H17V39.85H40.85V34.55H46.15V39.85H70V29.25H61.4962ZM30.25 25.275C30.25 23.0835 32.0335 21.3 34.225 21.3C36.5782 21.3 38.7671 25.3413 40.0497 29.25H32.9C31.9089 29.25 30.25 29.25 30.25 25.275ZM52.775 21.3C54.9666 21.3 56.75 23.0835 56.75 25.275C56.75 29.25 55.0911 29.25 54.1 29.25H47.5359C48.8875 25.0736 50.8511 21.3 52.775 21.3Z" fill="white"/>
</g>
<defs>
<filter id="filter0_d" x="0" y="0" width="88" height="88" filterUnits="userSpaceOnUse" color-interpolation-filters="sRGB">
<feFlood flood-opacity="0" result="BackgroundImageFix"/>
<feColorMatrix in="SourceAlpha" type="matrix" values="0 0 0 0 0 0 0 0 0 0 0 0 0 0 0 0 0 0 127 0" result="hardAlpha"/>
<feOffset dy="1"/>
<feGaussianBlur stdDeviation="1"/>
<feComposite in2="hardAlpha" operator="out"/>
<feColorMatrix type="matrix" values="0 0 0 0 0 0 0 0 0 0 0 0 0 0 0 0 0 0 0.15 0"/>
<feBlend mode="normal" in2="BackgroundImageFix" result="effect1_dropShadow"/>
<feBlend mode="normal" in="SourceGraphic" in2="effect1_dropShadow" result="shape"/>
</filter>
<filter id="filter1_d" x="16" y="16" width="55" height="55" filterUnits="userSpaceOnUse" color-interpolation-filters="sRGB">
<feFlood flood-opacity="0" result="BackgroundImageFix"/>
<feColorMatrix in="SourceAlpha" type="matrix" values="0 0 0 0 0 0 0 0 0 0 0 0 0 0 0 0 0 0 127 0" result="hardAlpha"/>
<feOffset dy="1"/>
<feGaussianBlur stdDeviation="0.5"/>
<feComposite in2="hardAlpha" operator="out"/>
<feColorMatrix type="matrix" values="0 0 0 0 0 0 0 0 0 0 0 0 0 0 0 0 0 0 0.25 0"/>
<feBlend mode="normal" in2="BackgroundImageFix" result="effect1_dropShadow"/>
<feBlend mode="normal" in="SourceGraphic" in2="effect1_dropShadow" result="shape"/>
</filter>
<linearGradient id="paint0_linear" x1="44" y1="1" x2="44" y2="85" gradientUnits="userSpaceOnUse">
<stop stop-color="#5B7EFA"/>
<stop offset="1" stop-color="#543DE0"/>
</linearGradient>
</defs>
</svg>
