<svg width="88" height="88" viewBox="0 0 88 88" fill="none" xmlns="http://www.w3.org/2000/svg">
<g filter="url(#filter0_d)">
<rect x="2" y="1" width="84" height="84" rx="15" fill="url(#paint0_linear)"/>
</g>
<g filter="url(#filter1_d)">
<path d="M27.5399 70.7872C26.0924 71.5264 24.4499 70.231 24.7424 68.5771L27.8549 50.9191L14.6437 38.3904C13.41 37.2182 14.0512 35.0753 15.7049 34.8439L34.0724 32.2456L42.2624 16.092C43.0011 14.636 44.9999 14.636 45.7386 16.092L53.9286 32.2456L72.296 34.8439C73.9498 35.0753 74.591 37.2182 73.3535 38.3904L60.1461 50.9191L63.2586 68.5771C63.5511 70.231 61.9086 71.5264 60.4611 70.7872L43.9949 62.3651L27.5362 70.7872H27.5399Z" fill="white"/>
</g>
<defs>
<filter id="filter0_d" x="0" y="0" width="88" height="88" filterUnits="userSpaceOnUse" color-interpolation-filters="sRGB">
<feFlood flood-opacity="0" result="BackgroundImageFix"/>
<feColorMatrix in="SourceAlpha" type="matrix" values="0 0 0 0 0 0 0 0 0 0 0 0 0 0 0 0 0 0 127 0" result="hardAlpha"/>
<feOffset dy="1"/>
<feGaussianBlur stdDeviation="1"/>
<feComposite in2="hardAlpha" operator="out"/>
<feColorMatrix type="matrix" values="0 0 0 0 0 0 0 0 0 0 0 0 0 0 0 0 0 0 0.15 0"/>
<feBlend mode="normal" in2="BackgroundImageFix" result="effect1_dropShadow"/>
<feBlend mode="normal" in="SourceGraphic" in2="effect1_dropShadow" result="shape"/>
</filter>
<filter id="filter1_d" x="13" y="15" width="62" height="58" filterUnits="userSpaceOnUse" color-interpolation-filters="sRGB">
<feFlood flood-opacity="0" result="BackgroundImageFix"/>
<feColorMatrix in="SourceAlpha" type="matrix" values="0 0 0 0 0 0 0 0 0 0 0 0 0 0 0 0 0 0 127 0" result="hardAlpha"/>
<feOffset dy="1"/>
<feGaussianBlur stdDeviation="0.5"/>
<feComposite in2="hardAlpha" operator="out"/>
<feColorMatrix type="matrix" values="0 0 0 0 0 0 0 0 0 0 0 0 0 0 0 0 0 0 0.25 0"/>
<feBlend mode="normal" in2="BackgroundImageFix" result="effect1_dropShadow"/>
<feBlend mode="normal" in="SourceGraphic" in2="effect1_dropShadow" result="shape"/>
</filter>
<linearGradient id="paint0_linear" x1="44" y1="1" x2="44" y2="85" gradientUnits="userSpaceOnUse">
<stop stop-color="#FFA573"/>
<stop offset="1" stop-color="#F07F16"/>
</linearGradient>
</defs>
</svg>
