<svg width="4" height="17" viewBox="0 0 4 17" fill="none" xmlns="http://www.w3.org/2000/svg">
<path fill-rule="evenodd" clip-rule="evenodd" d="M2 4.00201C3.1 4.00201 4 3.10201 4 2.00201C4 0.902014 3.1 0.00201416 2 0.00201416C0.9 0.00201416 0 0.902014 0 2.00201C0 3.10201 0.9 4.00201 2 4.00201ZM2 6.00201C0.9 6.00201 0 6.90201 0 8.00201C0 9.10201 0.9 10.002 2 10.002C3.1 10.002 4 9.10201 4 8.00201C4 6.90201 3.1 6.00201 2 6.00201ZM0 14.002C0 12.902 0.9 12.002 2 12.002C3.1 12.002 4 12.902 4 14.002C4 15.102 3.1 16.002 2 16.002C0.9 16.002 0 15.102 0 14.002Z" fill="#939393"/>
</svg>
